<?xml version="1.0" encoding="utf-8"?>
<!-- Generator: Adobe Illustrator 24.3.0, SVG Export Plug-In . SVG Version: 6.00 Build 0)  -->
<svg version="1.1" id="Layer_1" xmlns="http://www.w3.org/2000/svg" xmlns:xlink="http://www.w3.org/1999/xlink" x="0px" y="0px"
	 viewBox="0 0 512 512" style="enable-background:new 0 0 512 512;" xml:space="preserve">
<style type="text/css">
	.st0{fill:#AE285D;}
</style>
<g id="XMLID_1_">
	<path id="XMLID_3_" class="st0" d="M70.91,195.13c7.29,12.48,14.58,24.82,21.6,37.3c-11.5,20.33-23,40.81-34.92,61
		c-4.63,7.71-8.98,15.57-13.6,23.28c-14.72,0.14-29.45,0.14-44.03,0c0.42-0.98,0.84-1.96,1.4-2.94
		C24.63,274.22,47.91,234.82,70.91,195.13z"/>
	<path id="XMLID_6_" class="st0" d="M390.65,225.7c8.13,15.15,16.27,30.29,24.4,45.44c-2.8,0-5.75-0.14-8.55,0
		c-1.96-3.37-3.65-6.87-5.47-10.24c-7.15-0.28-14.44,0-21.6-0.14c-1.68,3.51-3.65,6.87-5.47,10.24c-2.8,0-5.61,0-8.41,0
		C373.68,255.85,381.95,240.71,390.65,225.7 M382.93,254.45c4.91,0,9.82,0,14.72,0.14c-2.52-4.63-4.63-9.26-7.29-13.74
		C387.84,245.19,385.32,249.82,382.93,254.45z"/>
	<path id="XMLID_7_" class="st0" d="M419.67,225.56c12.2,10.66,24.54,21.32,36.6,32.11c0.28-9.82,0-19.49,0.28-29.31
		c2.66,0,5.19,0.14,7.85,0.14c-0.14,15.01,0,30.15,0,45.16c-7.99-6.73-15.85-13.74-23.7-20.61c-4.49-3.79-8.83-7.57-13.04-11.64
		c-0.14,9.96,0,19.77-0.14,29.73c-2.66,0-5.19,0-7.85,0C419.67,255.85,419.53,240.71,419.67,225.56z"/>
	<path id="XMLID_10_" class="st0" d="M160.52,271c8.41-15.15,16.69-30.43,25.38-45.44c8.13,15.15,16.13,30.29,24.4,45.44
		c-2.94,0-5.75,0-8.69,0c-1.82-3.37-3.51-6.73-5.19-10.24c-7.29-0.14-14.44,0-21.74,0c-1.82,3.37-3.65,6.87-5.61,10.24
		C166.13,271.14,163.32,271.14,160.52,271 M178.19,254.45c4.91,0,9.96,0,14.86,0c-2.52-4.63-4.63-9.26-7.29-13.74
		C183.1,245.33,180.71,249.82,178.19,254.45z"/>
	<path id="XMLID_11_" class="st0" d="M281.12,229.63c4.21-2.1,8.98-2.24,13.46-1.4c3.93,0.84,7.01,3.65,9.4,6.59
		c-2.1,1.12-4.21,2.1-6.31,3.23c-2.8-4.35-9.4-5.75-13.46-2.38c-2.1,1.54-1.96,5.33,0.42,6.45c5.47,2.94,12.06,3.65,16.83,7.71
		c4.91,4.21,4.77,12.48,0.14,16.83c-4.91,4.91-12.62,6.03-19.07,4.21c-5.47-1.4-9.54-6.31-10.24-11.78c2.66-0.56,5.33-0.98,7.99-1.4
		c0.28,2.52,1.26,5.47,3.79,6.73c3.79,2.1,9.4,1.54,12.06-2.24c1.82-2.52,1.26-6.45-1.26-8.27c-5.33-3.51-12.34-3.79-17.25-8.27
		c-2.52-2.1-3.51-5.75-2.66-8.98C275.65,233.41,278.32,231.03,281.12,229.63z"/>
	<path id="XMLID_12_" class="st0" d="M212.83,228.65c2.94-0.42,6.03-0.28,8.98-0.28c3.23,4.77,6.45,9.54,9.54,14.3
		c3.37-4.77,6.59-9.54,9.96-14.16c3.09-0.14,6.17-0.14,9.26,0c-4.91,6.73-9.82,13.46-14.58,20.33c4.91,7.57,10.38,14.72,15.29,22.44
		c-2.94,0-5.89,0-8.83,0c-3.79-5.33-7.43-10.8-11.08-16.13c-3.79,5.33-7.71,10.66-11.5,16.13c-2.94,0-5.89,0-8.83,0
		c5.19-7.57,10.52-14.86,15.99-22.3C222.22,242.11,217.46,235.38,212.83,228.65z"/>
	<path id="XMLID_13_" class="st0" d="M257.84,228.5c2.66-0.14,5.33-0.14,7.85,0c0,14.16,0,28.47,0,42.63c-2.66,0-5.33,0-7.99,0
		C257.84,256.83,257.7,242.67,257.84,228.5z"/>
	<path id="XMLID_17_" class="st0" d="M334.83,228.36c6.73,0.28,14.02-0.98,20.33,2.38c6.03,3.23,7.43,12.9,1.82,17.25
		c3.51,1.4,7.01,4.07,7.85,7.85c1.54,4.77-1.12,9.96-5.33,12.48c-7.57,4.21-16.41,2.24-24.68,2.8
		C334.69,256.97,334.83,242.67,334.83,228.36 M342.69,234.54c0,4.07,0,8.13,0,12.2c2.94-0.14,6.17,0,8.69-1.82
		c2.52-2.24,2.52-7.01-0.42-8.98C348.58,234.39,345.49,234.54,342.69,234.54 M342.69,252.34c0,4.21,0,8.27,0,12.48
		c3.93-0.14,8.13,0.56,11.78-1.4c3.23-1.54,3.79-6.73,0.84-8.83C351.8,251.64,347.03,252.34,342.69,252.34z"/>
	<path id="XMLID_18_" class="st0" d="M473.67,228.36c2.66,0,5.19,0,7.85,0c0,5.61,0,11.22,0,16.83
		c6.45-5.75,13.04-11.22,19.63-16.97c3.65,0,7.15,0,10.8,0c-7.71,6.31-15.43,12.76-23.14,19.35c7.57,7.99,15.29,15.57,23,23.28
		c-3.51,0-7.15,0.28-10.66-0.14c-6.17-6.17-12.2-12.48-18.23-18.79c-0.42,0.56-0.84,1.12-1.26,1.68c-0.14,5.75,0,11.5-0.14,17.25
		c-2.66,0-5.33,0-7.99,0C473.53,256.83,473.53,242.67,473.67,228.36z"/>
	<path id="XMLID_19_" class="st0" d="M70.91,270.86c14.72,0,29.45-0.14,44.17,0.14c8.83,15.29,17.81,30.43,26.5,45.86
		c-14.72,0.14-29.45,0-44.17,0C88.72,301.43,79.6,286.28,70.91,270.86z"/>
</g>
</svg>
